<?xml version="1.0" standalone="no"?>
<!DOCTYPE svg PUBLIC "-//W3C//DTD SVG 20010904//EN"
 "http://www.w3.org/TR/2001/REC-SVG-20010904/DTD/svg10.dtd">
<svg version="1.0" xmlns="http://www.w3.org/2000/svg"
 width="16.000000pt" height="16.000000pt" viewBox="0 0 16.000000 16.000000"
 preserveAspectRatio="xMidYMid meet">
<metadata>
Created by potrace 1.11, written by Peter Selinger 2001-2013
</metadata>
<g transform="translate(0.000000,16.000000) scale(0.006250,-0.006250)"
fill="#000000" stroke="none">
<path d="M2530 1295 l0 -1265 -1265 0 c-1118 0 -1265 -2 -1265 -15 0 -13 149
-15 1280 -15 l1280 0 0 1280 c0 1131 -2 1280 -15 1280 -13 0 -15 -147 -15
-1265z"/>
<path d="M1022 1353 c3 -17 23 -18 258 -18 235 0 255 1 258 18 3 16 -14 17
-258 17 -244 0 -261 -1 -258 -17z"/>
<path d="M1027 1174 c-4 -4 -7 -13 -7 -21 0 -10 50 -13 261 -13 243 0 260 1
257 18 -3 16 -24 17 -254 20 -138 1 -253 -1 -257 -4z"/>
</g>
</svg>
